<svg xmlns="http://www.w3.org/2000/svg" xmlns:xlink="http://www.w3.org/1999/xlink" preserveAspectRatio="xMidYMid meet" width="1250" height="2500" viewBox="0 0 1250 2500" style="width:100%;height:100%"><defs><animate repeatCount="indefinite" dur="0.0166667s" begin="0s" xlink:href="#_R_G_L_1_G_L_1_G_D_0_P_0" fill="freeze" attributeName="d" attributeType="XML" from="M200 -15.96 C200,-15.96 55,-10.97 -13,-52.96 C-108.35,-111.86 -200,-113.96 -200,-113.96 C-200,-113.96 -200,294.79 -200,294.79 C-200,324.75 -175.71,349.04 -145.75,349.04 C-145.75,349.04 145.75,349.04 145.75,349.04 C175.71,349.04 200,324.75 200,294.79 C200,294.79 200,-15.96 200,-15.96z " to="M200 -15.96 C200,-15.96 55,-10.97 -13,-52.96 C-108.35,-111.86 -200,-113.96 -200,-113.96 C-200,-113.96 -200,294.79 -200,294.79 C-200,324.75 -175.71,349.04 -145.75,349.04 C-145.75,349.04 145.75,349.04 145.75,349.04 C175.71,349.04 200,324.75 200,294.79 C200,294.79 200,-15.96 200,-15.96z " keyTimes="0;1" values="M200 -15.96 C200,-15.96 55,-10.97 -13,-52.96 C-108.35,-111.86 -200,-113.96 -200,-113.96 C-200,-113.96 -200,294.79 -200,294.79 C-200,324.75 -175.71,349.04 -145.75,349.04 C-145.75,349.04 145.75,349.04 145.75,349.04 C175.71,349.04 200,324.75 200,294.79 C200,294.79 200,-15.96 200,-15.96z ;M200 -15.96 C200,-15.96 55,-10.97 -13,-52.96 C-108.35,-111.86 -200,-113.96 -200,-113.96 C-200,-113.96 -200,294.79 -200,294.79 C-200,324.75 -175.71,349.04 -145.75,349.04 C-145.75,349.04 145.75,349.04 145.75,349.04 C175.71,349.04 200,324.75 200,294.79 C200,294.79 200,-15.96 200,-15.96z " keySplines="0 0 0 0" calcMode="spline"/><animate repeatCount="indefinite" dur="0.0166667s" begin="0s" xlink:href="#_R_G_L_1_G_L_0_G_D_0_P_0" fill="freeze" attributeName="d" attributeType="XML" from="M-200 -15.96 C-200,-15.96 -61.41,-0.48 15,-44.96 C121.5,-106.96 200,-114.21 200,-114.21 C200,-114.21 200,294.79 200,294.79 C200,324.75 175.71,349.04 145.75,349.04 C145.75,349.04 -145.75,349.04 -145.75,349.04 C-175.71,349.04 -200,324.75 -200,294.79 C-200,294.79 -200,-15.96 -200,-15.96z " to="M-200 -15.96 C-200,-15.96 -61.41,-0.48 15,-44.96 C121.5,-106.96 200,-114.21 200,-114.21 C200,-114.21 200,294.79 200,294.79 C200,324.75 175.71,349.04 145.75,349.04 C145.75,349.04 -145.75,349.04 -145.75,349.04 C-175.71,349.04 -200,324.75 -200,294.79 C-200,294.79 -200,-15.96 -200,-15.96z " keyTimes="0;1" values="M-200 -15.96 C-200,-15.96 -61.41,-0.48 15,-44.96 C121.5,-106.96 200,-114.21 200,-114.21 C200,-114.21 200,294.79 200,294.79 C200,324.75 175.71,349.04 145.75,349.04 C145.75,349.04 -145.75,349.04 -145.75,349.04 C-175.71,349.04 -200,324.75 -200,294.79 C-200,294.79 -200,-15.96 -200,-15.96z ;M-200 -15.96 C-200,-15.96 -61.41,-0.48 15,-44.96 C121.5,-106.96 200,-114.21 200,-114.21 C200,-114.21 200,294.79 200,294.79 C200,324.75 175.71,349.04 145.75,349.04 C145.75,349.04 -145.75,349.04 -145.75,349.04 C-175.71,349.04 -200,324.75 -200,294.79 C-200,294.79 -200,-15.96 -200,-15.96z " keySplines="0 0 0 0" calcMode="spline"/><animate attributeType="XML" attributeName="opacity" dur="0s" from="0" to="1" xlink:href="#time_group"/></defs><g id="_R_G"><g id="_R_G_L_4_G" transform=" translate(625, 1250) translate(-642, -1389)"><rect id="_R_G_L_4_G_S" fill="#000000" width="1284" height="2778"/></g><g id="_R_G_L_3_G" transform=" translate(625, 896) translate(0, 0)"><path id="_R_G_L_3_G_D_0_P_0" fill="#ffffff" fill-opacity="1" fill-rule="nonzero" d=" M95.5 2.17 C95.5,2.17 95.5,32 95.5,32 C95.5,32 -95.5,32 -95.5,32 C-95.5,32 -95.5,2.17 -95.5,2.17 C-95.5,-16.7 -80.2,-32 -61.33,-32 C-61.33,-32 61.33,-32 61.33,-32 C80.2,-32 95.5,-16.7 95.5,2.17z "/></g><g id="_R_G_L_2_G" transform=" translate(625, 1308) translate(0, 0)"><path id="_R_G_L_2_G_D_0_P_0" fill="#000000" fill-opacity="1" fill-rule="nonzero" d=" M158.79 380 C158.79,380 -158.79,380 -158.79,380 C-193.42,380 -221.5,351.93 -221.5,317.29 C-221.5,317.29 -221.5,-317.29 -221.5,-317.29 C-221.5,-351.92 -193.42,-380 -158.79,-380 C-158.79,-380 158.79,-380 158.79,-380 C193.43,-380 221.5,-351.92 221.5,-317.29 C221.5,-317.29 221.5,317.29 221.5,317.29 C221.5,351.93 193.43,380 158.79,380z "/><path id="_R_G_L_2_G_D_1_P_0" stroke="#ffffff" stroke-linecap="round" stroke-linejoin="round" fill="none" stroke-width="10" stroke-opacity="1" d=" M158.79 380 C158.79,380 -158.79,380 -158.79,380 C-193.42,380 -221.5,351.93 -221.5,317.29 C-221.5,317.29 -221.5,-317.29 -221.5,-317.29 C-221.5,-351.92 -193.42,-380 -158.79,-380 C-158.79,-380 158.79,-380 158.79,-380 C193.43,-380 221.5,-351.92 221.5,-317.29 C221.5,-317.29 221.5,317.29 221.5,317.29 C221.5,351.93 193.43,380 158.79,380z "/></g><g id="_R_G_L_1_G" transform=" translate(625, 1410) translate(-585, -1266)"><g id="_R_G_L_1_G_L_1_G" transform=" translate(585, 1172.965) translate(0, 0)"><path id="_R_G_L_1_G_L_1_G_D_0_P_0" fill="#7a007b" fill-opacity="1" fill-rule="nonzero" d=" M200 -15.96 C200,-15.96 55,-10.97 -13,-52.96 C-108.35,-111.86 -200,-113.96 -200,-113.96 C-200,-113.96 -200,294.79 -200,294.79 C-200,324.75 -175.71,349.04 -145.75,349.04 C-145.75,349.04 145.75,349.04 145.75,349.04 C175.71,349.04 200,324.75 200,294.79 C200,294.79 200,-15.96 200,-15.96z "/></g><g id="_R_G_L_1_G_L_0_G" transform=" translate(585, 1172.965) translate(0, 0)"><path id="_R_G_L_1_G_L_0_G_D_0_P_0" fill="#f600ff" fill-opacity="1" fill-rule="nonzero" d=" M-200 -15.96 C-200,-15.96 -61.41,-0.48 15,-44.96 C121.5,-106.96 200,-114.21 200,-114.21 C200,-114.21 200,294.79 200,294.79 C200,324.75 175.71,349.04 145.75,349.04 C145.75,349.04 -145.75,349.04 -145.75,349.04 C-175.71,349.04 -200,324.75 -200,294.79 C-200,294.79 -200,-15.96 -200,-15.96z "/></g></g><g id="_R_G_L_0_G" transform=" translate(625.5, 1318.965) translate(0, 0)"/></g><g id="time_group"/></svg>